<svg width="96" height="96" viewBox="0 0 96 96" fill="none" xmlns="http://www.w3.org/2000/svg">
<circle cx="48" cy="48" r="48" fill="#372F46"/>
<path d="M18.2858 59.5715C18.1564 59.4938 18.1564 59.3062 18.2858 59.2285L32.6971 50.5817C32.8304 50.5018 33 50.5978 33 50.7532L33 68.0468C33 68.2022 32.8304 68.2983 32.6971 68.2183L18.2858 59.5715Z" fill="#1AE285"/>
<path d="M18.2858 40.3715C18.1564 40.2938 18.1564 40.1062 18.2858 40.0285L32.6971 31.3817C32.8304 31.3018 33 31.3978 33 31.5532L33 48.8468C33 49.0022 32.8304 49.0982 32.6971 49.0183L18.2858 40.3715Z" fill="#1AE285"/>
<path d="M18.2858 21.1715C18.1564 21.0938 18.1564 20.9062 18.2858 20.8285L32.6971 12.1817C32.8304 12.1018 33 12.1978 33 12.3532L33 29.6468C33 29.8022 32.8304 29.8982 32.6971 29.8183L18.2858 21.1715Z" fill="#1AE285"/>
<path d="M32.7142 30.4285C32.8436 30.5062 32.8436 30.6938 32.7142 30.7715L18.3029 39.4183C18.1696 39.4982 18 39.4022 18 39.2468L18 21.9532C18 21.7978 18.1696 21.7018 18.3029 21.7817L32.7142 30.4285Z" fill="#1AE285"/>
<path d="M48.3172 20.8285C48.4466 20.9062 48.4466 21.0938 48.3172 21.1715L33.9059 29.8183C33.7726 29.8982 33.603 29.8022 33.603 29.6468L33.603 12.3532C33.603 12.1978 33.7726 12.1018 33.9059 12.1817L48.3172 20.8285Z" fill="#1AE285"/>
<path d="M32.7142 49.6285C32.8436 49.7062 32.8436 49.8938 32.7142 49.9715L18.3029 58.6183C18.1696 58.6982 18 58.6022 18 58.4468L18 41.1532C18 40.9978 18.1696 40.9018 18.3029 40.9817L32.7142 49.6285Z" fill="#1AE285"/>
<path d="M48.3171 59.2285C48.4466 59.3062 48.4466 59.4938 48.3171 59.5715L33.9059 68.2183C33.7726 68.2982 33.603 68.2022 33.603 68.0468L33.603 50.7532C33.603 50.5978 33.7726 50.5018 33.9059 50.5817L48.3171 59.2285Z" fill="#1AE285"/>
<path d="M74.7142 39.4285C74.8436 39.5062 74.8436 39.6938 74.7142 39.7715L60.3029 48.4183C60.1696 48.4982 60 48.4022 60 48.2468L60 30.9532C60 30.7978 60.1696 30.7018 60.3029 30.7817L74.7142 39.4285Z" fill="#FE1D4D"/>
<path d="M74.7142 58.6285C74.8436 58.7062 74.8436 58.8938 74.7142 58.9715L60.3029 67.6183C60.1696 67.6982 60 67.6022 60 67.4468L60 50.1532C60 49.9978 60.1696 49.9018 60.3029 49.9817L74.7142 58.6285Z" fill="#FE1D4D"/>
<path d="M74.7142 77.8285C74.8436 77.9062 74.8436 78.0938 74.7142 78.1715L60.3029 86.8183C60.1696 86.8982 60 86.8022 60 86.6468L60 69.3532C60 69.1978 60.1696 69.1018 60.3029 69.1817L74.7142 77.8285Z" fill="#FE1D4D"/>
<path d="M60.2858 68.5715C60.1564 68.4938 60.1564 68.3062 60.2858 68.2285L74.6971 59.5817C74.8304 59.5018 75 59.5978 75 59.7532L75 77.0468C75 77.2022 74.8304 77.2982 74.6971 77.2183L60.2858 68.5715Z" fill="#FE1D4D"/>
<path d="M44.6828 78.1715C44.5534 78.0938 44.5534 77.9062 44.6828 77.8285L59.0941 69.1817C59.2274 69.1018 59.397 69.1978 59.397 69.3532L59.397 86.6468C59.397 86.8022 59.2274 86.8982 59.0941 86.8183L44.6828 78.1715Z" fill="#FE1D4D"/>
<path d="M60.2858 49.3715C60.1564 49.2938 60.1564 49.1062 60.2858 49.0285L74.6971 40.3817C74.8304 40.3018 75 40.3978 75 40.5532L75 57.8468C75 58.0022 74.8304 58.0982 74.6971 58.0183L60.2858 49.3715Z" fill="#FE1D4D"/>
<path d="M44.6828 39.7715C44.5534 39.6938 44.5534 39.5062 44.6828 39.4285L59.0941 30.7817C59.2274 30.7018 59.397 30.7978 59.397 30.9532L59.397 48.2468C59.397 48.4022 59.2274 48.4982 59.0941 48.4183L44.6828 39.7715Z" fill="#FE1D4D"/>
</svg>
